<svg width="883" height="542" viewBox="0 0 883 542" fill="none" xmlns="http://www.w3.org/2000/svg">
<g filter="url(#filter0_d_218_742)">
<path d="M54.7869 180.972H31.6571C28.7051 180.972 25.8086 180.17 23.2772 178.651C12.7338 172.325 12.7338 157.045 23.2772 150.719C25.8086 149.2 28.7051 148.397 31.6571 148.397H69.1155C76.5501 148.397 83.2283 152.944 85.9532 159.862L103.157 203.532C104.247 206.299 106.918 208.118 109.892 208.118H315.116C329.266 208.118 337.942 223.627 330.538 235.685L288.446 304.235C285.893 308.393 286.514 313.723 289.509 317.575C310.574 344.665 301.872 367.736 287.682 382.95C276.437 395.006 259.221 398.138 242.735 398.138H128.291C122.437 398.138 116.63 397.102 111.137 395.078C101.429 391.502 100.825 378 110.175 373.572L112.872 372.294C117.198 370.245 121.924 369.182 126.709 369.182H244.444C249.103 369.182 253.683 367.983 257.744 365.699C268.243 359.793 268.912 344.924 258.985 338.1L258.613 337.844C254.013 334.681 248.562 332.988 242.979 332.988H131.775C124.334 332.988 117.652 328.434 114.931 321.508L61.5245 185.564C60.4362 182.794 57.7632 180.972 54.7869 180.972Z" fill="#009BA6"/>
<circle cx="161.068" cy="436.142" r="27.1457" fill="#D9D9D9"/>
<circle cx="161.068" cy="436.142" r="27.1457" fill="#009DA8"/>
<circle cx="247.933" cy="436.142" r="27.1457" fill="#009DA8"/>
<path d="M141.156 145.314L206.306 130.3L195.798 188.211H149.563L141.156 145.314Z" fill="#11CFFF"/>
<path d="M222.596 104.963L296.794 121.25L282.317 188.21H206.309L222.596 104.963Z" fill="#F5AD00"/>
<mask id="mask0_218_742" style="mask-type:alpha" maskUnits="userSpaceOnUse" x="403" y="171" width="64" height="64">
<circle cx="434.844" cy="203.037" r="27.2409" transform="rotate(35.0379 434.844 203.037)" stroke="#D9D9D9" stroke-width="8.38183"/>
</mask>
<g mask="url(#mask0_218_742)">
<rect x="417.607" y="150.872" width="41.9091" height="75.4365" transform="rotate(35.0379 417.607 150.872)" fill="#D9D9D9"/>
</g>
<path fill-rule="evenodd" clip-rule="evenodd" d="M391.874 194.878C384.044 194.878 377.257 200.298 375.526 207.934L337.03 377.666C334.651 388.154 342.624 398.137 353.378 398.137H373.156C380.144 398.137 386.399 393.803 388.852 387.26L399.553 358.724C402.007 352.181 408.262 347.846 415.249 347.846H420.396C427.846 347.846 434.403 352.764 436.489 359.916L444.116 386.067C446.203 393.22 452.759 398.137 460.21 398.137H472.956C483.643 398.137 491.601 388.272 489.34 377.827L452.594 208.095C450.924 200.382 444.101 194.878 436.209 194.878H391.874ZM414.102 234.692C422.203 234.692 428.77 228.125 428.77 220.024C428.77 211.923 422.203 205.355 414.102 205.355C406.001 205.355 399.434 211.923 399.434 220.024C399.434 228.125 406.001 234.692 414.102 234.692Z" fill="#009BA6"/>
<path d="M378.512 310.242L449.757 326.661L438.266 263.331H387.705L378.512 310.242Z" fill="#11CFFF"/>
<path d="M401.077 251.456L449.762 262.143L440.263 306.078H390.391L401.077 251.456Z" fill="#F5AD00"/>
<mask id="mask1_218_742" style="mask-type:alpha" maskUnits="userSpaceOnUse" x="403" y="171" width="64" height="64">
<circle cx="434.844" cy="203.037" r="27.2409" transform="rotate(35.0379 434.844 203.037)" stroke="#D9D9D9" stroke-width="8.38183"/>
</mask>
<g mask="url(#mask1_218_742)">
<rect x="452.559" y="166.829" width="41.9091" height="75.4365" transform="rotate(35.0379 452.559 166.829)" fill="#D9D9D9"/>
</g>
<path d="M600.212 399.888C582.641 399.888 566.995 396.88 553.274 390.862C539.554 384.844 528.722 376.66 520.779 366.31C512.835 355.719 508.382 343.924 507.419 330.926H568.439C569.161 337.906 572.41 343.563 578.187 347.896C583.964 352.228 591.065 354.395 599.49 354.395C607.193 354.395 613.09 352.95 617.182 350.062C621.515 346.933 623.681 342.961 623.681 338.147C623.681 332.37 620.672 328.157 614.655 325.51C608.637 322.621 598.888 319.492 585.409 316.122C570.966 312.752 558.931 309.262 549.302 305.651C539.674 301.8 531.37 295.903 524.389 287.959C517.409 279.775 513.918 268.823 513.918 255.102C513.918 243.548 517.048 233.078 523.306 223.69C529.805 214.062 539.193 206.479 551.469 200.943C563.986 195.407 578.789 192.639 595.88 192.639C621.154 192.639 641.012 198.897 655.455 211.414C670.138 223.931 678.563 240.54 680.729 261.241H623.681C622.718 254.26 619.589 248.724 614.294 244.632C609.239 240.54 602.499 238.494 594.074 238.494C586.853 238.494 581.317 239.938 577.465 242.826C573.614 245.474 571.688 249.205 571.688 254.019C571.688 259.796 574.697 264.129 580.715 267.018C586.973 269.906 596.602 272.795 609.6 275.683C624.524 279.534 636.68 283.386 646.067 287.237C655.455 290.848 663.639 296.865 670.619 305.29C677.841 313.474 681.572 324.547 681.812 338.508C681.812 350.303 678.442 360.894 671.703 370.281C665.203 379.428 655.696 386.65 643.179 391.945C630.903 397.241 616.58 399.888 600.212 399.888Z" fill="#009BA6"/>
<rect x="701.729" y="194.513" width="59.0927" height="214.211" fill="#009BA6"/>
<rect x="822.369" y="130.495" width="56.6305" height="267.148" fill="#009BA6"/>
<rect x="713.025" y="307.65" width="57.9108" height="148.396" transform="rotate(-90 713.025 307.65)" fill="#009BA6"/>
<path d="M751.098 305.902L824.575 322.482L812.724 258.53H760.579L751.098 305.902Z" fill="#11CFFF"/>
<path d="M760.211 236.825L832.736 247.474L818.585 291.252H744.291L760.211 236.825Z" fill="#F5AD00"/>
</g>
<defs>
<filter id="filter0_d_218_742" x="11.5885" y="104.963" width="871.192" height="365.886" filterUnits="userSpaceOnUse" color-interpolation-filters="sRGB">
<feFlood flood-opacity="0" result="BackgroundImageFix"/>
<feColorMatrix in="SourceAlpha" type="matrix" values="0 0 0 0 0 0 0 0 0 0 0 0 0 0 0 0 0 0 127 0" result="hardAlpha"/>
<feOffset dy="3.78066"/>
<feGaussianBlur stdDeviation="1.89033"/>
<feComposite in2="hardAlpha" operator="out"/>
<feColorMatrix type="matrix" values="0 0 0 0 0 0 0 0 0 0 0 0 0 0 0 0 0 0 0.25 0"/>
<feBlend mode="normal" in2="BackgroundImageFix" result="effect1_dropShadow_218_742"/>
<feBlend mode="normal" in="SourceGraphic" in2="effect1_dropShadow_218_742" result="shape"/>
</filter>
</defs>
</svg>
